HIERARCHY
ROOT Hips
{
	OFFSET 0.000000 0.000000 0.000000
	CHANNELS 6 Xposition Yposition Zposition Zrotation Yrotation Xrotation 
	JOINT LHipJoint
	{
		OFFSET 0.000000 0.000000 0.000000
		CHANNELS 3 Zrotation Yrotation Xrotation
		JOINT LeftUpLeg
		{
			OFFSET 1.363060 -1.794630 0.839290
			CHANNELS 3 Zrotation Yrotation Xrotation
			JOINT LeftLeg
			{
				OFFSET 2.448110 -6.726130 0.000000
				CHANNELS 3 Zrotation Yrotation Xrotation
				JOINT LeftFoot
				{
					OFFSET 2.562200 -7.039590 0.000000
					CHANNELS 3 Zrotation Yrotation Xrotation
					JOINT LeftToeBase
					{
						OFFSET 0.157640 -0.433110 2.322550
						CHANNELS 3 Zrotation Yrotation Xrotation
						End Site
						{
							OFFSET 0.000000 0.000000 0.000000
						}
					}
				}
			}
		}
	}
	JOINT RHipJoint
	{
		OFFSET 0.000000 0.000000 0.000000
		CHANNELS 3 Zrotation Yrotation Xrotation
		JOINT RightUpLeg
		{
			OFFSET -1.305520 -1.794630 0.839290
			CHANNELS 3 Zrotation Yrotation Xrotation
			JOINT RightLeg
			{
				OFFSET -2.542530 -6.985550 0.000000
				CHANNELS 3 Zrotation Yrotation Xrotation
				JOINT RightFoot
				{
					OFFSET -2.568260 -7.056230 0.000000
					CHANNELS 3 Zrotation Yrotation Xrotation
					JOINT RightToeBase
					{
						OFFSET -0.164730 -0.452590 2.363150
						CHANNELS 3 Zrotation Yrotation Xrotation
						End Site
						{
							OFFSET 0.000000 0.000000 0.000000
						}
					}
				}
			}
		}
	}
	JOINT LowerBack
	{
		OFFSET 0.000000 0.000000 0.000000
		CHANNELS 3 Zrotation Yrotation Xrotation
		JOINT Spine
		{
			OFFSET 0.028270 2.035590 -0.193380
			CHANNELS 3 Zrotation Yrotation Xrotation
			JOINT Spine1
			{
				OFFSET 0.056720 2.048850 -0.042750
				CHANNELS 3 Zrotation Yrotation Xrotation
				JOINT Neck
				{
					OFFSET 0.000000 0.000000 0.000000
					CHANNELS 3 Zrotation Yrotation Xrotation
					JOINT Neck1
					{
						OFFSET -0.054170 1.746240 0.172020
						CHANNELS 3 Zrotation Yrotation Xrotation
						JOINT Head
						{
							OFFSET 0.104070 1.761360 -0.123970
							CHANNELS 3 Zrotation Yrotation Xrotation
							End Site
							{
								OFFSET 0.000000 0.000000 0.000000
							}
						}
					}
				}
				JOINT LeftShoulder
				{
					OFFSET 0.000000 0.000000 0.000000
					CHANNELS 3 Zrotation Yrotation Xrotation
					JOINT LeftArm
					{
						OFFSET 3.362410 1.200890 -0.311210
						CHANNELS 3 Zrotation Yrotation Xrotation
						JOINT LeftForeArm
						{
							OFFSET 4.983000 -0.000000 -0.000000
							CHANNELS 3 Zrotation Yrotation Xrotation
							JOINT LeftHand
							{
								OFFSET 3.483560 -0.000000 -0.000000
								CHANNELS 3 Zrotation Yrotation Xrotation
								JOINT LeftFingerBase
								{
									OFFSET 0.000000 0.000000 0.000000
									CHANNELS 3 Zrotation Yrotation Xrotation
									JOINT LeftHandIndex1
									{
										OFFSET 0.715260 -0.000000 -0.000000
										CHANNELS 3 Zrotation Yrotation Xrotation
										End Site
										{
											OFFSET 0.000000 0.000000 0.000000
										}
									}
								}
								JOINT LThumb
								{
									OFFSET 0.000000 0.000000 0.000000
									CHANNELS 3 Zrotation Yrotation Xrotation
									End Site
									{
										OFFSET 0.000000 0.000000 0.000000
									}
								}
							}
						}
					}
				}
				JOINT RightShoulder
				{
					OFFSET 0.000000 0.000000 0.000000
					CHANNELS 3 Zrotation Yrotation Xrotation
					JOINT RightArm
					{
						OFFSET -3.136600 1.374050 -0.404650
						CHANNELS 3 Zrotation Yrotation Xrotation
						JOINT RightForeArm
						{
							OFFSET -5.241900 -0.000000 -0.000000
							CHANNELS 3 Zrotation Yrotation Xrotation
							JOINT RightHand
							{
								OFFSET -3.444170 -0.000000 -0.000000
								CHANNELS 3 Zrotation Yrotation Xrotation
								JOINT RightFingerBase
								{
									OFFSET 0.000000 0.000000 0.000000
									CHANNELS 3 Zrotation Yrotation Xrotation
									JOINT RightHandIndex1
									{
										OFFSET -0.622530 -0.000000 -0.000000
										CHANNELS 3 Zrotation Yrotation Xrotation
										End Site
										{
											OFFSET 0.000000 0.000000 0.000000
										}
									}
								}
								JOINT RThumb
								{
									OFFSET 0.000000 0.000000 0.000000
									CHANNELS 3 Zrotation Yrotation Xrotation
									End Site
									{
										OFFSET 0.000000 0.000000 0.000000
									}
								}
							}
						}
					}
				}
			}
		}
	}
}
MOTION
Frames: 10
Frame Time: 0.008333
8.455095 23.793656 5.032866 177.043573 2.173333 -165.067850 4.204164 2.624664 -1.016736 -30.506313 -13.471832 -10.675170 0.373013 5.662992 16.453056 2.157119 -7.710155 -24.548147 10.639900 -17.754300 -61.606600 -9.550713 -3.398762 0.524626 12.773726 23.518736 -54.110124 -3.720531 -15.970901 42.208452 -0.630151 -4.220936 -17.977104 -3.399800 11.315800 -33.352400 -6.145665 -0.832355 8.449602 0.774063 -0.859622 -3.935852 3.776276 -0.572463 1.517042 -6.585730 -1.849518 -12.494985 6.283736 -0.819584 22.072632 1.959600 0.637900 9.177100 2.087387 -5.081095 1.305197 -85.636084 -9.045502 32.800152 22.030190 -32.925076 -7.630055 0.183539 1.398830 15.206983 30.777556 -17.943468 -11.348700 -7.125000 0.000000 0.000000 1.695700 7.516300 -1.460000 -1.384713 5.796788 2.177364 84.500977 -11.372884 -40.517105 -0.300247 9.461711 -1.752497 -0.867625 -1.643004 39.115299 -17.795465 -38.533597 11.059700 7.125000 0.000000 0.000000 21.206900 -66.784000 -11.342600 
8.467345 23.788390 4.786886 177.090211 1.760602 -165.150831 4.189129 2.664308 -1.051433 -30.606031 -12.949608 -9.411469 0.331202 5.440209 15.928136 2.183260 -7.989629 -24.582310 10.729800 -17.800300 -61.900800 -9.601831 -3.465054 0.623727 12.219399 23.770404 -54.820338 -2.859233 -14.919679 38.382950 -0.518681 -3.690885 -16.027367 -3.435100 11.368100 -33.531600 -6.074084 -1.005312 8.444665 0.846118 -1.079536 -3.903848 3.968085 -0.663916 1.590020 -7.607126 -1.842283 -11.453699 7.448650 -1.005134 21.553299 2.585200 0.537500 8.717600 2.073261 -5.166666 1.352047 -85.406102 -9.264911 33.461777 23.094289 -33.982626 -8.217982 0.171644 1.417021 15.386025 31.859353 -18.392808 -12.105000 -7.125000 0.000000 0.000000 2.325000 6.745700 -2.037600 -1.425876 5.734298 2.197904 84.843297 -11.834376 -44.199990 -0.244607 8.415362 -1.665723 -0.963843 -1.583977 41.940350 -17.408044 -39.076485 10.936100 7.125000 0.000000 0.000000 22.348100 -67.162100 -12.169600 
8.481638 23.778826 4.535748 177.135251 1.373891 -165.280607 4.183070 2.702661 -1.089755 -30.689620 -12.420267 -8.151299 0.301766 5.264660 15.535462 2.214208 -8.177743 -24.669388 10.820300 -17.846000 -62.196700 -9.635580 -3.507305 0.684220 12.038375 23.761995 -55.221273 -2.261726 -14.067770 35.448906 -0.464479 -2.951067 -14.732268 -3.173900 10.971400 -32.183500 -5.942326 -0.747681 8.453618 0.913368 -1.336461 -3.878878 3.981106 -1.052684 1.695280 -7.503398 -1.888826 -11.330565 7.527026 -1.126221 21.465293 2.571700 0.494600 8.638100 2.089921 -5.182044 1.376919 -85.061965 -9.609928 34.172686 23.800132 -34.681706 -8.643352 0.176349 1.439947 15.588920 33.106913 -19.463313 -13.334700 -7.125000 0.000000 0.000000 2.936200 5.198700 -2.661600 -1.446603 5.758473 2.213257 85.321876 -12.306502 -47.728694 -0.205138 7.413504 -1.580617 -1.070697 -1.520630 44.719125 -17.226412 -39.436226 10.884900 7.125000 0.000000 0.000000 23.045100 -67.417900 -12.698600 
8.497542 23.765178 4.276980 176.988266 0.950662 -165.413291 4.209517 2.766565 -1.123925 -31.041741 -11.946881 -6.883350 0.285341 5.124959 15.243497 2.229008 -8.358489 -24.669276 10.908000 -17.889800 -62.482500 -9.715090 -3.631867 0.822383 11.780698 23.672857 -55.681009 -1.796234 -13.262866 32.891543 -0.207858 -4.497940 -7.512203 -5.989700 14.418300 -44.940300 -5.940675 -0.838578 8.410200 0.919374 -1.471956 -3.871120 3.895796 -1.110357 1.720054 -7.306656 -1.992038 -10.908666 7.437758 -1.343788 21.256333 2.459600 0.397200 8.444700 2.103395 -5.218835 1.398486 -84.739514 -9.879904 34.861670 24.339158 -35.190512 -8.939112 0.205990 1.440897 15.646737 33.087008 -20.327920 -13.819300 -7.125000 0.000000 0.000000 2.762300 4.215000 -2.554800 -1.483426 5.800108 2.228349 85.950621 -12.934509 -51.733330 -0.250449 6.372298 -1.490220 -1.183874 -1.436744 48.054606 -16.947313 -39.356300 10.665800 7.125000 0.000000 0.000000 23.312200 -67.257400 -12.767700 
8.517853 23.753680 4.020469 176.776198 0.418086 -165.570266 4.196522 2.783653 -1.127513 -31.351671 -11.616147 -5.715226 0.294752 5.060281 15.175925 2.249371 -8.573209 -24.694091 11.003700 -17.936900 -62.793400 -9.694135 -3.609637 0.825839 11.451328 23.322984 -55.679935 -1.490529 -12.775923 31.228574 -0.265025 -3.780810 -10.130473 -2.496700 9.831900 -28.434000 -5.998343 -0.997191 8.496791 0.955904 -1.686102 -3.867089 3.951060 -1.221255 1.742882 -7.436157 -2.068177 -10.701082 7.526992 -1.459150 21.255631 2.504900 0.342800 8.392300 2.110565 -5.253575 1.407872 -84.555495 -10.338153 35.321909 24.828475 -35.597761 -9.150737 0.232855 1.418872 15.120772 31.626847 -20.165414 -12.964500 -7.125000 0.000000 0.000000 1.863700 4.787600 -1.702600 -1.509810 5.816358 2.238710 86.367814 -13.335368 -56.153366 -0.433395 5.290835 -1.400099 -1.291702 -1.312556 52.059865 -16.843427 -39.320307 10.572400 7.125000 0.000000 0.000000 23.463400 -67.206100 -12.827100 
8.545255 23.744008 3.762453 176.764872 -0.101952 -165.665771 4.204036 2.815372 -1.135950 -31.354712 -11.389799 -4.702646 0.319980 5.073400 15.292631 2.264185 -8.761292 -24.710590 11.105900 -17.986500 -63.124900 -9.727738 -3.655347 0.864470 11.660863 23.129274 -55.677743 -1.349840 -12.549446 30.522974 -0.217526 -5.161829 -8.058273 -2.501100 9.839800 -28.459700 -5.905679 -1.085947 8.519942 1.010519 -1.800241 -3.856604 4.038079 -1.273451 1.787129 -7.696742 -2.156549 -10.606192 7.832029 -1.583565 21.359273 2.669400 0.298000 8.413100 2.110643 -5.276778 1.415795 -84.365718 -10.873638 35.931917 24.922808 -35.657337 -9.165879 0.237998 1.411028 14.940125 31.074216 -19.804999 -12.490200 -7.125000 0.000000 0.000000 1.570600 5.332100 -1.418400 -1.532377 5.832353 2.246794 86.746733 -13.639803 -60.315880 -0.676028 4.328120 -1.322297 -1.380929 -1.201727 55.677200 -16.555152 -39.483989 10.411300 7.125000 0.000000 0.000000 24.059400 -67.272500 -13.204200 
8.572658 23.733047 3.479613 176.451580 -0.708227 -166.033577 4.219347 2.860799 -1.142673 -31.786349 -11.058286 -3.208408 0.342059 5.027317 15.297486 2.255141 -8.978946 -24.558647 11.230200 -18.045900 -63.526900 -9.743760 -3.678583 0.857250 11.886512 22.590572 -55.092503 -1.400096 -12.621186 30.834849 -0.202032 -6.440834 -5.829412 -2.837000 10.426400 -30.368900 -6.076599 -1.185317 8.561714 1.031517 -1.942796 -3.796686 4.123052 -1.376940 1.995998 -7.767570 -2.279153 -10.546110 7.923211 -1.735155 21.558399 2.710000 0.247500 8.464200 2.109308 -5.277617 1.430563 -84.277386 -11.181288 36.301262 24.832909 -35.588352 -9.121783 0.256674 1.413476 15.088731 31.157683 -20.297868 -12.794900 -7.125000 0.000000 0.000000 1.537000 4.754000 -1.404900 -1.552416 5.821837 2.261178 87.044669 -13.760521 -65.212529 -1.078731 3.287747 -1.235683 -1.462269 -1.061676 60.167327 -15.959453 -39.654003 10.060300 7.125000 0.000000 0.000000 25.030600 -67.267100 -13.761000 
8.607046 23.737453 3.204081 176.706766 -1.371001 -166.134548 4.229991 2.891154 -1.145979 -31.367888 -10.998511 -2.201317 0.371857 5.066522 15.475851 2.214359 -8.999737 -24.276362 11.368700 -18.110900 -63.973300 -9.808213 -3.729081 0.862900 12.691331 22.439863 -54.557140 -1.476514 -12.724396 31.311802 -0.240161 -7.600163 -2.884602 -0.918900 6.107500 -17.096700 -5.663303 -1.418080 8.442670 1.157210 -2.223366 -3.751586 4.264450 -1.533771 2.289107 -7.862305 -2.300564 -10.737345 7.716708 -1.680289 21.779488 2.660800 0.254800 8.574500 2.130814 -5.236629 1.432096 -84.518314 -11.686294 36.050756 24.440490 -35.228682 -8.924196 0.266370 1.420301 15.438071 31.449039 -20.520307 -13.065600 -7.125000 0.000000 0.000000 1.681400 4.423400 -1.547400 -1.526652 5.786936 2.274068 86.920393 -13.548302 -70.115412 -1.607402 2.319220 -1.147358 -1.512321 -0.868305 65.331025 -15.886440 -39.707058 10.016600 7.125000 0.000000 0.000000 25.319200 -67.342300 -13.970800 
8.644228 23.748844 2.930483 176.675899 -2.001466 -166.125553 4.217370 2.883424 -1.124155 -31.217563 -11.021974 -1.388437 0.423977 5.165782 15.839569 2.154590 -8.967929 -23.890217 11.499000 -18.170700 -64.391600 -9.760769 -3.673355 0.761299 13.417759 21.863506 -53.968733 -1.804459 -13.302829 33.107286 -0.178726 -6.632798 -6.220170 -1.387800 7.453600 -21.066200 -5.508431 -1.579726 8.320831 1.234819 -2.415389 -3.738717 4.363309 -1.645595 2.485234 -7.932751 -2.408644 -10.982954 7.506762 -1.731904 22.046303 2.598900 0.219700 8.727800 2.151420 -5.217094 1.425089 -84.781824 -12.000875 35.923001 24.023033 -34.845686 -8.701289 0.255592 1.426137 15.908539 31.806810 -20.043519 -12.994300 -7.125000 0.000000 0.000000 1.992000 4.864500 -1.817000 -1.525468 5.772564 2.275373 87.010308 -13.465911 -73.539092 -1.998144 1.689552 -1.085677 -1.550693 -0.721727 69.156930 -15.988695 -39.589035 10.041600 7.125000 0.000000 0.000000 25.139600 -67.292800 -13.838600 
8.682054 23.764963 2.647644 176.673822 -2.453127 -166.027835 4.221918 2.872930 -1.112863 -31.062853 -10.938812 -0.629772 0.479593 5.269853 16.222284 2.073720 -8.879766 -23.379657 11.622400 -18.226400 -64.786900 -9.725899 -3.636933 0.679143 14.040433 21.655929 -53.290101 -2.048545 -13.748323 34.535964 -0.184495 -6.752493 -9.925753 -1.679100 8.162900 -23.209900 -5.279039 -1.576413 8.097753 1.247846 -2.391488 -3.761772 4.222793 -1.617640 2.515956 -7.900922 -2.559675 -10.932857 7.554469 -1.930104 22.184354 2.603800 0.149800 8.774000 2.175584 -5.232870 1.420634 -84.907292 -11.606003 35.926090 23.847449 -34.726061 -8.626656 0.239691 1.434162 16.489405 32.537040 -19.814809 -13.243300 -7.125000 0.000000 0.000000 2.499700 4.935500 -2.277600 -1.577409 5.788920 2.271203 87.525291 -13.568191 -75.805203 -2.277954 1.356510 -1.060462 -1.616246 -0.635792 71.713983 -15.942788 -39.874887 10.052800 7.125000 0.000000 0.000000 25.570900 -67.500500 -14.208000 
